<svg xmlns="http://www.w3.org/2000/svg" viewBox="0 0 512 512">
  <defs>
    <linearGradient id="felt" x1="96" y1="60" x2="430" y2="454" gradientUnits="userSpaceOnUse">
      <stop stop-color="#1f513f"/>
      <stop offset=".58" stop-color="#12251f"/>
      <stop offset="1" stop-color="#0d1412"/>
    </linearGradient>
    <linearGradient id="chip" x1="128" y1="92" x2="388" y2="420" gradientUnits="userSpaceOnUse">
      <stop stop-color="#ffcf67"/>
      <stop offset=".48" stop-color="#f59f22"/>
      <stop offset="1" stop-color="#d46b18"/>
    </linearGradient>
    <filter id="shadow" x="-20%" y="-20%" width="140%" height="140%">
      <feDropShadow dx="0" dy="20" stdDeviation="22" flood-color="#07100d" flood-opacity=".35"/>
    </filter>
  </defs>
  <rect width="512" height="512" rx="112" fill="url(#felt)"/>
  <circle cx="256" cy="256" r="178" fill="url(#chip)" filter="url(#shadow)"/>
  <circle cx="256" cy="256" r="124" fill="#fff6df"/>
  <circle cx="256" cy="256" r="91" fill="#14211d"/>
  <g fill="#fff6df">
    <rect x="237" y="62" width="38" height="76" rx="19"/>
    <rect x="237" y="374" width="38" height="76" rx="19"/>
    <rect x="374" y="237" width="76" height="38" rx="19"/>
    <rect x="62" y="237" width="76" height="38" rx="19"/>
    <rect x="334" y="105" width="38" height="72" rx="19" transform="rotate(45 353 141)"/>
    <rect x="334" y="335" width="38" height="72" rx="19" transform="rotate(135 353 371)"/>
    <rect x="140" y="335" width="38" height="72" rx="19" transform="rotate(45 159 371)"/>
    <rect x="140" y="105" width="38" height="72" rx="19" transform="rotate(135 159 141)"/>
  </g>
  <path d="M202 257.5 238.5 294 315 216" fill="none" stroke="#fff6df" stroke-width="34" stroke-linecap="round" stroke-linejoin="round"/>
  <circle cx="256" cy="256" r="178" fill="none" stroke="#fff6df" stroke-width="12" opacity=".55"/>
</svg>
